<?xml version="1.0" standalone="no"?>
<!DOCTYPE svg PUBLIC "-//W3C//DTD SVG 20010904//EN"
 "http://www.w3.org/TR/2001/REC-SVG-20010904/DTD/svg10.dtd">
<svg version="1.0" xmlns="http://www.w3.org/2000/svg"
 width="512.000000pt" height="512.000000pt" viewBox="0 0 512.000000 512.000000"
 preserveAspectRatio="xMidYMid meet">

<g transform="translate(0.000000,512.000000) scale(0.100000,-0.100000)"
fill="#000000" stroke="none">
<path d="M2480 4841 l0 -280 -57 -6 c-319 -34 -556 -101 -788 -224 -372 -196
-678 -508 -863 -877 -114 -228 -175 -450 -207 -756 l-6 -58 -280 0 -279 0 0
-80 0 -80 279 0 280 0 6 -57 c32 -307 93 -529 207 -757 184 -368 493 -682 863
-877 234 -123 469 -191 788 -224 l57 -6 0 -280 0 -279 80 0 80 0 0 279 0 280
58 6 c307 32 527 93 756 207 369 185 681 491 877 863 123 232 190 469 224 788
l6 57 280 0 279 0 0 80 0 80 -279 0 -280 0 -6 58 c-32 306 -93 528 -207 756
-187 374 -506 695 -877 885 -241 123 -455 182 -773 216 l-58 6 0 280 0 279
-80 0 -80 0 0 -279z m0 -721 l0 -280 80 0 80 0 0 281 0 280 58 -6 c284 -31
464 -82 690 -196 497 -250 855 -715 970 -1259 11 -52 23 -122 27 -155 3 -33 8
-79 11 -102 l5 -43 -280 0 -281 0 0 -80 0 -80 281 0 280 0 -5 -42 c-3 -24 -8
-70 -11 -103 -19 -184 -88 -410 -185 -601 -179 -356 -458 -635 -814 -814 -191
-97 -417 -166 -601 -185 -33 -3 -79 -8 -102 -11 l-43 -5 0 280 0 281 -80 0
-80 0 0 -280 0 -280 -62 6 c-104 9 -278 42 -373 69 -484 140 -896 484 -1124
937 -114 226 -165 406 -196 691 l-6 57 280 0 281 0 0 80 0 80 -281 0 -280 0 6
58 c31 285 82 463 195 688 244 485 681 831 1215 963 79 20 238 44 323 50 l22
1 0 -280z"/>
</g>
</svg>
