<?xml version="1.0" ?><svg id="Layer_1" style="enable-background:new 0 0 32 32;" version="1.1" viewBox="0 0 32 32" xml:space="preserve" xmlns="http://www.w3.org/2000/svg" xmlns:xlink="http://www.w3.org/1999/xlink"><g><g><path d="M16,26c-5.5141602,0-10-4.4858398-10-10S10.4858398,6,16,6s10,4.4858398,10,10S21.5141602,26,16,26z M16,8    c-4.4111328,0-8,3.5888672-8,8s3.5888672,8,8,8s8-3.5888672,8-8S20.4111328,8,16,8z"/></g><g><circle cx="16" cy="16" r="2"/></g><g><path d="M16,12.3334961c-0.5522461,0-1-0.4477539-1-1V2c0-0.5522461,0.4477539-1,1-1s1,0.4477539,1,1v9.3334961    C17,11.8857422,16.5522461,12.3334961,16,12.3334961z"/></g><g><path d="M16,31c-0.5522461,0-1-0.4477539-1-1v-9.3334961c0-0.5522461,0.4477539-1,1-1s1,0.4477539,1,1V30    C17,30.5522461,16.5522461,31,16,31z"/></g><g><path d="M11.3334961,17H2c-0.5522461,0-1-0.4477539-1-1s0.4477539-1,1-1h9.3334961c0.5522461,0,1,0.4477539,1,1    S11.8857422,17,11.3334961,17z"/></g><g><path d="M30,17h-9.3334961c-0.5522461,0-1-0.4477539-1-1s0.4477539-1,1-1H30c0.5522461,0,1,0.4477539,1,1S30.5522461,17,30,17z"/></g></g></svg>